HIERARCHY
ROOT Hips
{
	OFFSET -0.001795 -0.223333 0.028219
	CHANNELS 6 Xposition Yposition Zposition Zrotation Yrotation Xrotation 
	JOINT LeftUpLeg
	{
		OFFSET 0.069520 -0.091406 -0.006815
		CHANNELS 3 Zrotation Yrotation Xrotation
		JOINT LeftLeg
		{
			OFFSET 0.034277 -0.375199 -0.004496
			CHANNELS 3 Zrotation Yrotation Xrotation
			JOINT LeftFoot
			{
				OFFSET -0.013596 -0.397961 -0.043693
				CHANNELS 3 Zrotation Yrotation Xrotation
				JOINT LeftToe
				{
					OFFSET 0.026358 -0.055791 0.119288
					CHANNELS 3 Zrotation Yrotation Xrotation
					End Site
					{
						OFFSET 0.000000 0.000000 0.000000
					}
				}
			}
		}
	}
	JOINT RightUpLeg
	{
		OFFSET -0.067670 -0.090522 -0.004320
		CHANNELS 3 Zrotation Yrotation Xrotation
		JOINT RightLeg
		{
			OFFSET -0.038290 -0.382569 -0.008850
			CHANNELS 3 Zrotation Yrotation Xrotation
			JOINT RightFoot
			{
				OFFSET 0.015774 -0.398415 -0.042312
				CHANNELS 3 Zrotation Yrotation Xrotation
				JOINT RightToe
				{
					OFFSET -0.025372 -0.048144 0.123348
					CHANNELS 3 Zrotation Yrotation Xrotation
					End Site
					{
						OFFSET 0.000000 0.000000 0.000000
					}
				}
			}
		}
	}
	JOINT Spine
	{
		OFFSET -0.002533 0.108963 -0.026696
		CHANNELS 3 Zrotation Yrotation Xrotation
		JOINT Spine1
		{
			OFFSET 0.005487 0.135180 0.001092
			CHANNELS 3 Zrotation Yrotation Xrotation
			JOINT Spine2
			{
				OFFSET 0.001457 0.052922 0.025425
				CHANNELS 3 Zrotation Yrotation Xrotation
				JOINT Neck
				{
					OFFSET -0.002778 0.213870 -0.042857
					CHANNELS 3 Zrotation Yrotation Xrotation
					JOINT Head
					{
						OFFSET 0.005152 0.064970 0.051349
						CHANNELS 3 Zrotation Yrotation Xrotation
						End Site
						{
							OFFSET 0.000000 0.000000 0.000000
						}
					}
				}
				JOINT LeftShoulder
				{
					OFFSET 0.078845 0.121749 -0.034090
					CHANNELS 3 Zrotation Yrotation Xrotation
					JOINT LeftArm
					{
						OFFSET 0.090977 0.030469 -0.008868
						CHANNELS 3 Zrotation Yrotation Xrotation
						JOINT LeftForeArm
						{
							OFFSET 0.259612 -0.012772 -0.027456
							CHANNELS 3 Zrotation Yrotation Xrotation
							JOINT LeftHand
							{
								OFFSET 0.249234 0.008986 -0.001171
								CHANNELS 3 Zrotation Yrotation Xrotation
								End Site
								{
									OFFSET 0.000000 0.000000 0.000000
								}
							}
						}
					}
				}
				JOINT RightShoulder
				{
					OFFSET -0.081759 0.118833 -0.038615
					CHANNELS 3 Zrotation Yrotation Xrotation
					JOINT RightArm
					{
						OFFSET -0.096012 0.032551 -0.009143
						CHANNELS 3 Zrotation Yrotation Xrotation
						JOINT RightForeArm
						{
							OFFSET -0.253742 -0.013329 -0.021401
							CHANNELS 3 Zrotation Yrotation Xrotation
							JOINT RightHand
							{
								OFFSET -0.255298 0.007772 -0.005559
								CHANNELS 3 Zrotation Yrotation Xrotation
								End Site
								{
									OFFSET 0.000000 0.000000 0.000000
								}
							}
						}
					}
				}
			}
		}
	}
}
MOTION
Frames: 7
Frame Time: 0.050000
0.041505 0.929304 0.021291 -4.189915 4.091884 -7.509977 -0.996883 1.067720 11.948928 2.215968 0.593197 -18.210194 7.805653 18.857047 39.369851 0.000000 0.000000 0.000000 8.280973 4.064905 -24.443583 -0.012752 0.794111 33.259962 -4.888197 -12.584476 3.531467 0.000000 0.000000 0.000000 4.697564 -1.289817 15.326813 1.233521 -0.570938 -0.473090 -4.268574 -0.859383 3.902826 6.779919 -1.698695 -23.284366 0.000000 0.000000 0.000000 -30.904499 -11.552688 3.449279 -35.907160 -15.357053 0.356879 -7.838934 -32.837850 3.351298 0.000000 0.000000 0.000000 28.887708 4.007895 0.646026 49.088235 2.653490 -4.009010 16.777502 28.842502 5.139274 0.000000 0.000000 0.000000 
0.040847 0.924346 0.020500 -3.859647 5.128087 -5.787032 -0.921551 1.235582 14.389702 1.247032 0.687833 -26.253525 6.284471 17.598748 41.181864 0.000000 0.000000 0.000000 8.148254 4.064472 -25.177528 -1.954820 1.267985 24.528574 -3.334853 -6.985084 -5.515078 0.000000 0.000000 0.000000 4.727766 -1.185581 13.735629 2.272352 -0.983865 -1.771025 -5.259617 -1.028743 3.915759 9.334932 -2.960360 -23.469184 0.000000 0.000000 0.000000 -30.667953 -12.666587 3.993316 -36.080517 -17.506683 1.040277 -5.066795 -36.826416 2.834643 0.000000 0.000000 0.000000 29.894936 2.997874 0.169184 47.522025 0.338794 -4.811538 16.874102 27.616218 4.944849 0.000000 0.000000 0.000000 
0.038749 0.919337 0.020953 -3.576165 6.505226 -5.208426 -0.388967 1.321224 17.452510 -0.165721 0.399418 -32.906244 4.623226 16.330114 43.152748 0.000000 0.000000 0.000000 9.040328 4.205696 -25.396431 -3.752084 1.940859 28.526103 -2.483720 -0.636777 -14.703700 0.000000 0.000000 0.000000 5.368129 -1.116471 12.054142 2.566034 -1.262897 0.157693 -6.231281 -2.244113 1.950060 8.999773 -2.866102 -22.573366 0.000000 0.000000 0.000000 -30.112241 -12.366717 3.822146 -37.368439 -20.386123 2.091202 -2.096879 -39.678060 1.986016 0.000000 0.000000 0.000000 29.504144 2.927628 -0.069386 49.198875 -2.063445 -5.651390 15.204313 26.704333 4.335458 0.000000 0.000000 0.000000 
0.034390 0.915118 0.024442 -3.363513 6.924970 -4.588960 -0.155243 1.396529 19.682451 -0.186990 0.409202 -27.322462 -1.568850 2.295231 10.749936 0.000000 0.000000 0.000000 8.336290 4.083850 -25.835528 -2.044729 1.376178 36.237854 -2.983124 0.238728 -19.140578 0.000000 0.000000 0.000000 5.219499 -0.900005 9.937089 2.487074 -1.265209 0.690181 -6.712695 -2.708508 2.807474 9.890447 -3.097068 -24.238397 0.000000 0.000000 0.000000 -30.045375 -11.675927 3.491444 -37.502613 -22.657557 2.694547 -0.224917 -42.574488 1.449320 0.000000 0.000000 0.000000 29.288884 2.786155 -0.176815 50.031841 -2.086623 -5.805661 13.403938 24.424418 3.555955 0.000000 0.000000 0.000000 
0.027264 0.914094 0.031969 -3.997186 9.171489 -5.186812 0.895732 1.136323 22.091708 0.997091 0.375064 -15.971031 0.719056 -6.103073 -10.973519 0.000000 0.000000 0.000000 8.785690 3.888564 -24.475792 -0.871383 0.324962 42.874706 -2.602799 -1.649273 -14.120992 0.000000 0.000000 0.000000 5.065542 -0.845639 9.409789 3.136005 -1.632330 1.054370 -5.748364 -2.835492 3.033519 9.129976 -2.645549 -24.174577 0.000000 0.000000 0.000000 -31.628801 -12.581996 3.767820 -36.673137 -22.880791 2.767794 0.115426 -44.420319 1.316040 0.000000 0.000000 0.000000 29.549242 0.797938 -1.209050 48.981092 -3.549142 -6.350560 14.497548 23.872131 3.720195 0.000000 0.000000 0.000000 
0.018049 0.918211 0.040894 -5.312157 8.943877 -4.425931 3.579848 0.521818 19.067862 0.724958 -0.331861 5.494508 4.764473 -5.803356 -23.887431 0.000000 0.000000 0.000000 10.676716 4.250021 -24.386319 -0.506936 0.193834 41.634366 2.018184 -2.588623 19.662406 0.000000 0.000000 0.000000 6.089970 -0.678175 6.906540 3.917885 -2.283667 3.360170 -5.973619 -2.535100 1.635441 9.227687 -2.443336 -25.120959 0.000000 0.000000 0.000000 -32.926312 -10.396813 2.040933 -37.195819 -22.242567 2.794361 -1.139749 -44.614874 1.789412 0.000000 0.000000 0.000000 27.786459 1.748939 -0.453009 50.734857 -3.430433 -6.374860 12.544625 23.899107 3.333152 0.000000 0.000000 0.000000 
0.008724 0.923009 0.046302 -6.283567 8.899483 -4.900730 5.707780 0.104501 13.670096 -1.427526 -1.452189 29.477573 5.990992 -2.894839 -26.337745 0.000000 0.000000 0.000000 13.138562 4.061952 -20.604161 -1.522173 0.746616 36.603563 3.399328 -13.987749 77.278111 0.000000 0.000000 0.000000 7.072739 -0.772848 7.207023 3.332546 -1.987263 3.508578 -5.995261 0.226161 1.674966 9.817245 -2.472491 -24.909668 0.000000 0.000000 0.000000 -32.605063 -13.115561 2.633418 -37.795714 -18.833070 2.209896 -3.743317 -45.692362 2.615210 0.000000 0.000000 0.000000 28.960057 0.674332 -0.134688 49.551066 -1.812564 -5.917073 12.631669 23.683021 3.435600 0.000000 0.000000 0.000000 
